# xmcd CD database file generated by Grip 3.0.7
# 
# Track frame offsets:
#       150
#       17902
#       39334
# 
# Disc length: 949 seconds
# 
# Revision: 2
# Processed by: cddbd v1.5PL3 Copyright (c) Steve Scherf et al.
# Submitted via: Grip 3.0.7
# 
DISCID=1a03b303
DTITLE=Wanderlust - Ambient
DYEAR=2003
DGENRE=Rock and Roll
TTITLE0=Breakdown or Breakthrough
TTITLE1=Everybody
TTITLE2=Burglar Steps
EXTD=
EXTT0=
EXTT1=
EXTT2=
PLAYORDER=
